<svg xmlns="http://www.w3.org/2000/svg" viewBox="0 0 120 120" width="120" height="120">
  <defs>
    <linearGradient id="grad1" x1="0%" y1="0%" x2="100%" y2="100%">
      <stop offset="0%" style="stop-color:#87F1FF;stop-opacity:1" />
      <stop offset="100%" style="stop-color:#4EA6DC;stop-opacity:1" />
    </linearGradient>
    <linearGradient id="grad2" x1="0%" y1="0%" x2="100%" y2="100%">
      <stop offset="0%" style="stop-color:#E32D91;stop-opacity:1" />
      <stop offset="100%" style="stop-color:#C830CC;stop-opacity:1" />
    </linearGradient>
  </defs>
  
  <!-- Outer circle segments -->
  <g transform="translate(60, 60)">
    <!-- Top segment -->
    <path d="M -8 -52 L 8 -52 L 12 -35 L -12 -35 Z" fill="#113285"/>
    <!-- Top right -->
    <path d="M 25 -46 L 38 -38 L 28 -22 L 18 -30 Z" fill="#4EA6DC"/>
    <!-- Right top -->
    <path d="M 46 -25 L 52 -8 L 35 -12 L 38 -22 Z" fill="#87F1FF"/>
    <!-- Right bottom -->
    <path d="M 52 8 L 46 25 L 38 22 L 35 12 Z" fill="#113285"/>
    <!-- Bottom right -->
    <path d="M 38 38 L 25 46 L 18 30 L 28 22 Z" fill="#4EA6DC"/>
    <!-- Bottom -->
    <path d="M 8 52 L -8 52 L -12 35 L 12 35 Z" fill="#87F1FF"/>
    <!-- Bottom left -->
    <path d="M -25 46 L -38 38 L -28 22 L -18 30 Z" fill="#113285"/>
    <!-- Left bottom -->
    <path d="M -46 25 L -52 8 L -35 12 L -38 22 Z" fill="#4EA6DC"/>
    <!-- Left top -->
    <path d="M -52 -8 L -46 -25 L -38 -22 L -35 -12 Z" fill="#87F1FF"/>
    <!-- Top left -->
    <path d="M -38 -38 L -25 -46 L -18 -30 L -28 -22 Z" fill="#113285"/>
    
    <!-- Center play triangle (teal/magenta gradient) -->
    <path d="M -15 -20 L 25 0 L -15 20 Z" fill="url(#grad2)"/>
    
    <!-- Inner geometric accents -->
    <path d="M -20 -12 L -8 -12 L -8 12 L -20 12 Z" fill="url(#grad1)" opacity="0.6"/>
  </g>
</svg>
